<?xml version="1.0" encoding="utf-8"?>
<!-- Generator: Adobe Illustrator 25.0.0, SVG Export Plug-In . SVG Version: 6.00 Build 0)  -->
<svg version="1.1" id="Livello_1" xmlns="http://www.w3.org/2000/svg" xmlns:xlink="http://www.w3.org/1999/xlink" x="0px" y="0px"
	 viewBox="0 0 825 825" style="enable-background:new 0 0 825 825;" xml:space="preserve">
<rect id="background-blue" x="0" y="3" style="fill:#0D6EFD;" width="825" height="825"/>
<path id="background-dark" style="fill:#212529;" d="M0,0v825h825V0H0z M412.5,757C263.66,757,143,636.34,143,487.5
	S263.66,218,412.5,218S682,338.66,682,487.5S561.34,757,412.5,757z"/>
<g id="penna">
	<path id="matita-bordi" style="fill:#212529;" d="M397.38,79.26l-102.9,160.4V798.5h236.03V239.66l-102.9-160.4
		C420.55,68.25,404.45,68.25,397.38,79.26z"/>
	<g id="corpo_matita">
		<path id="nero-ct" style="fill:#464C51;" d="M411.17,234.68h2.65c17.73,0,32.11,14.37,32.11,32.11v482.23
			c0,17.73-14.37,32.11-32.11,32.11h-2.65c-17.73,0-32.11-14.37-32.11-32.11V266.78C379.07,249.05,393.44,234.68,411.17,234.68z"/>
		<path id="giallo-sx" style="fill:#FFC107;" d="M335.27,234.68h2.65c17.73,0,32.11,14.37,32.11,32.11v482.23
			c0,17.73-14.37,32.11-32.11,32.11h-2.65c-17.73,0-32.11-14.37-32.11-32.11V266.78C303.16,249.05,317.54,234.68,335.27,234.68z"/>
		<path id="giallo-dx" style="fill:#FFC107;" d="M487.08,234.68h2.65c17.73,0,32.11,14.37,32.11,32.11v482.23
			c0,17.73-14.37,32.11-32.11,32.11h-2.65c-17.73,0-32.11-14.37-32.11-32.11V266.78C454.97,249.05,469.35,234.68,487.08,234.68z"/>
	</g>
	<g id="punta_matita">
		<path id="grafite" style="fill:#464C51;" d="M433.76,106.2l-13.49-21.04c-3.63-5.66-11.91-5.66-15.54,0l-13.49,21.04
			c-2.36,3.68,0.28,8.5,4.65,8.5h33.23C433.48,114.7,436.12,109.87,433.76,106.2z"/>
		<path id="legno" style="fill:#FFD392;" d="M434.08,121.64h-43.17c-5.98,0-11.54,3.04-14.77,8.07l-65.89,102.71
			c7.03-5.25,15.66-8.39,25.01-8.39h2.65c15.6,0,29.23,8.65,36.63,21.48c7.4-12.83,21.03-21.48,36.63-21.48h2.65
			c15.6,0,29.23,8.65,36.63,21.48c7.4-12.83,21.03-21.48,36.63-21.48h2.65c9.35,0,17.98,3.14,25.01,8.39l-65.89-102.71
			C445.63,124.69,440.06,121.64,434.08,121.64z"/>
	</g>
</g>
<path id="copertura" style="fill:#212529;" d="M682,487.5C682,636.34,561.34,757,412.5,757S143,636.34,143,487.5
	c0-0.17,0.01-0.33,0.01-0.5H0v338h825V487H681.99C681.99,487.17,682,487.33,682,487.5z"/>
<g id="stelle">
	<path id="circonferenza-bassa" style="fill:#FFFFFF;" d="M273.25,153c-5.93,0-10.75-4.82-10.75-10.75s4.82-10.75,10.75-10.75
		S284,136.32,284,142.25S279.18,153,273.25,153z M273.25,132.5c-5.38,0-9.75,4.37-9.75,9.75s4.37,9.75,9.75,9.75
		s9.75-4.37,9.75-9.75S278.63,132.5,273.25,132.5z"/>
	<path id="circonferenza-alta" style="fill:#FFFFFF;" d="M530.53,52.73c-5.93,0-10.75-4.82-10.75-10.75s4.82-10.75,10.75-10.75
		s10.75,4.82,10.75,10.75S536.46,52.73,530.53,52.73z M530.53,32.23c-5.38,0-9.75,4.37-9.75,9.75s4.37,9.75,9.75,9.75
		s9.75-4.37,9.75-9.75S535.91,32.23,530.53,32.23z"/>
	<path id="circonferenza-sinistra" style="fill:#FFFFFF;" d="M528.49,166c-4.13,0-7.49-3.36-7.49-7.49s3.36-7.49,7.49-7.49
		c4.13,0,7.49,3.36,7.49,7.49S532.62,166,528.49,166z M528.49,152.02c-3.58,0-6.49,2.91-6.49,6.49s2.91,6.49,6.49,6.49
		s6.49-2.91,6.49-6.49S532.07,152.02,528.49,152.02z"/>
	<path id="stella-sinistra" style="fill:#FFFFFF;" d="M312.31,76.23h-8.21c-0.34-5.03-4.35-9.05-9.39-9.39v-8.21
		c0-0.38-0.31-0.69-0.69-0.69c-0.38,0-0.69,0.31-0.69,0.69v8.21c-5.03,0.34-9.05,4.35-9.39,9.39h-8.21c-0.38,0-0.69,0.31-0.69,0.69
		s0.31,0.69,0.69,0.69h8.21c0.34,5.03,4.35,9.05,9.39,9.39v8.21c0,0.38,0.31,0.69,0.69,0.69c0.38,0,0.69-0.31,0.69-0.69V87
		c5.03-0.34,9.05-4.35,9.39-9.39h8.21c0.38,0,0.69-0.31,0.69-0.69S312.69,76.23,312.31,76.23z"/>
	<path id="stella-centrale" style="fill:#FFFFFF;" d="M452.64,64.56h-4.32c-0.18-2.65-2.29-4.76-4.94-4.94v-4.32
		c0-0.2-0.16-0.36-0.36-0.36c-0.2,0-0.36,0.16-0.36,0.36v4.32c-2.65,0.18-4.76,2.29-4.94,4.94h-4.32c-0.2,0-0.36,0.16-0.36,0.36
		c0,0.2,0.16,0.36,0.36,0.36h4.32c0.18,2.65,2.29,4.76,4.94,4.94v4.32c0,0.2,0.16,0.36,0.36,0.36c0.2,0,0.36-0.16,0.36-0.36v-4.32
		c2.65-0.18,4.76-2.29,4.94-4.94h4.32c0.2,0,0.36-0.16,0.36-0.36C453,64.72,452.84,64.56,452.64,64.56z"/>
	<path id="stella-bassa" style="fill:#FFFFFF;" d="M454.14,301.99h-8.21c-0.34-5.03-4.35-9.05-9.39-9.39v-8.21
		c0-0.38-0.31-0.69-0.69-0.69c-0.38,0-0.69,0.31-0.69,0.69v8.21c-5.03,0.34-9.05,4.35-9.39,9.39h-8.21c-0.38,0-0.69,0.31-0.69,0.69
		s0.31,0.69,0.69,0.69h8.21c0.34,5.03,4.35,9.05,9.39,9.39v8.21c0,0.38,0.31,0.69,0.69,0.69c0.38,0,0.69-0.31,0.69-0.69v-8.21
		c5.03-0.34,9.05-4.35,9.39-9.39h8.21c0.38,0,0.69-0.31,0.69-0.69S454.52,301.99,454.14,301.99z"/>
</g>
</svg>
